{
  "accessors": [
    {
      "bufferView": 2,
      "componentType": 5126,
      "count": 65532,
      "max": [
        4.903878211975098,
        5.227426052093506,
        0.13885200023651123
      ],
      "min": [
        -4.904183864593506,
        -5.176170825958252,
        -0.14248700439929962
      ],
      "type": "VEC3"
    },
    {
      "bufferView": 2,
      "byteOffset": 786384,
      "componentType": 5126,
      "count": 65532,
      "max": [
        0.9939978718757629,
        0.99266517162323,
        1.0
      ],
      "min": [
        -0.9939978718757629,
        -0.99266517162323,
        -1.0
      ],
      "type": "VEC3"
    },
    {
      "bufferView": 1,
      "componentType": 5126,
      "count": 65532,
      "max": [
        0.1110209971666336,
        0.624439001083374
      ],
      "min": [
        0.09367600083351135,
        0.09863600134849548
      ],
      "type": "VEC2"
    },
    {
      "bufferView": 0,
      "componentType": 5125,
      "count": 178290,
      "type": "SCALAR"
    },
    {
      "bufferView": 2,
      "byteOffset": 1572768,
      "componentType": 5126,
      "count": 65533,
      "max": [
        4.766055107116699,
        4.099715232849121,
        0.14311400055885315
      ],
      "min": [
        -4.873603820800781,
        -5.1522979736328125,
        -0.2647460103034973
      ],
      "type": "VEC3"
    },
    {
      "bufferView": 2,
      "byteOffset": 2359164,
      "componentType": 5126,
      "count": 65533,
      "max": [
        1.0,
        1.0,
        1.0
      ],
      "min": [
        -1.0,
        -1.0,
        -1.0
      ],
      "type": "VEC3"
    },
    {
      "bufferView": 1,
      "byteOffset": 524256,
      "componentType": 5126,
      "count": 65533,
      "max": [
        0.636913001537323,
        0.9023069739341736
      ],
      "min": [
        0.09367600083351135,
        0.08075500279664993
      ],
      "type": "VEC2"
    },
    {
      "bufferView": 0,
      "byteOffset": 713160,
      "componentType": 5125,
      "count": 98763,
      "type": "SCALAR"
    },
    {
      "bufferView": 2,
      "byteOffset": 3145560,
      "componentType": 5126,
      "count": 65534,
      "max": [
        4.843422889709473,
        5.120680809020996,
        0.821474015712738
      ],
      "min": [
        -4.873603820800781,
        -5.1522979736328125,
        -0.2647460103034973
      ],
      "type": "VEC3"
    },
    {
      "bufferView": 2,
      "byteOffset": 3931968,
      "componentType": 5126,
      "count": 65534,
      "max": [
        1.0,
        1.0,
        1.0
      ],
      "min": [
        -1.0,
        -1.0,
        -1.0
      ],
      "type": "VEC3"
    },
    {
      "bufferView": 1,
      "byteOffset": 1048520,
      "componentType": 5126,
      "count": 65534,
      "max": [
        0.636913001537323,
        0.9023069739341736
      ],
      "min": [
        0.09367600083351135,
        0.08075500279664993
      ],
      "type": "VEC2"
    },
    {
      "bufferView": 0,
      "byteOffset": 1108212,
      "componentType": 5125,
      "count": 98802,
      "type": "SCALAR"
    },
    {
      "bufferView": 2,
      "byteOffset": 4718376,
      "componentType": 5126,
      "count": 65532,
      "max": [
        4.903878211975098,
        5.227426052093506,
        0.821474015712738
      ],
      "min": [
        -4.904183864593506,
        -5.176170825958252,
        -0.14570799469947815
      ],
      "type": "VEC3"
    },
    {
      "bufferView": 2,
      "byteOffset": 5504760,
      "componentType": 5126,
      "count": 65532,
      "max": [
        1.0,
        1.0,
        1.0
      ],
      "min": [
        -1.0,
        -1.0,
        -1.0
      ],
      "type": "VEC3"
    },
    {
      "bufferView": 1,
      "byteOffset": 1572792,
      "componentType": 5126,
      "count": 65532,
      "max": [
        0.9316980242729187,
        0.9416199922561646
      ],
      "min": [
        0.09367600083351135,
        0.09265699982643127
      ],
      "type": "VEC2"
    },
    {
      "bufferView": 0,
      "byteOffset": 1503420,
      "componentType": 5125,
      "count": 108228,
      "type": "SCALAR"
    },
    {
      "bufferView": 2,
      "byteOffset": 6291144,
      "componentType": 5126,
      "count": 23155,
      "max": [
        4.766055107116699,
        5.120680809020996,
        0.14311400055885315
      ],
      "min": [
        -4.839177131652832,
        -5.1522979736328125,
        -0.14126600325107574
      ],
      "type": "VEC3"
    },
    {
      "bufferView": 2,
      "byteOffset": 6569004,
      "componentType": 5126,
      "count": 23155,
      "max": [
        -0.0,
        0.0,
        1.0
      ],
      "min": [
        -0.0,
        0.0,
        -1.0
      ],
      "type": "VEC3"
    },
    {
      "bufferView": 1,
      "byteOffset": 2097048,
      "componentType": 5126,
      "count": 23155,
      "max": [
        0.11816799640655518,
        0.10147800296545029
      ],
      "min": [
        0.09367600083351135,
        0.09265699982643127
      ],
      "type": "VEC2"
    },
    {
      "bufferView": 0,
      "byteOffset": 1936332,
      "componentType": 5125,
      "count": 65325,
      "type": "SCALAR"
    },
    {
      "bufferView": 2,
      "byteOffset": 6846864,
      "componentType": 5126,
      "count": 9400,
      "max": [
        1.6460189819335938,
        1.8850740194320679,
        0.8252559900283813
      ],
      "min": [
        -1.3831340074539185,
        0.16497200727462769,
        0.7889440059661865
      ],
      "type": "VEC3"
    },
    {
      "bufferView": 2,
      "byteOffset": 6959664,
      "componentType": 5126,
      "count": 9400,
      "max": [
        0.0,
        0.04329835623502731,
        1.0
      ],
      "min": [
        0.0,
        -0.017800740897655487,
        -1.0
      ],
      "type": "VEC3"
    },
    {
      "bufferView": 1,
      "byteOffset": 2282288,
      "componentType": 5126,
      "count": 9400,
      "max": [
        0.6318550109863281,
        0.37637999653816223
      ],
      "min": [
        0.6310510039329529,
        0.37557899951934814
      ],
      "type": "VEC2"
    },
    {
      "bufferView": 0,
      "byteOffset": 2197632,
      "componentType": 5125,
      "count": 23304,
      "type": "SCALAR"
    },
    {
      "bufferView": 2,
      "byteOffset": 7072464,
      "componentType": 5126,
      "count": 9226,
      "max": [
        1.6460189819335938,
        1.8850740194320679,
        0.8252559900283813
      ],
      "min": [
        -1.3831340074539185,
        0.16497200727462769,
        0.7889440059661865
      ],
      "type": "VEC3"
    },
    {
      "bufferView": 2,
      "byteOffset": 7183176,
      "componentType": 5126,
      "count": 9226,
      "max": [
        1.0,
        1.0,
        0.0
      ],
      "min": [
        -1.0,
        -1.0,
        0.0
      ],
      "type": "VEC3"
    },
    {
      "bufferView": 1,
      "byteOffset": 2357488,
      "componentType": 5126,
      "count": 9226,
      "max": [
        0.6318619847297668,
        0.3763900101184845
      ],
      "min": [
        0.6310510039329529,
        0.37557899951934814
      ],
      "type": "VEC2"
    },
    {
      "bufferView": 0,
      "byteOffset": 2290848,
      "componentType": 5125,
      "count": 23844,
      "type": "SCALAR"
    },
    {
      "bufferView": 2,
      "byteOffset": 7293888,
      "componentType": 5126,
      "count": 8,
      "max": [
        4.645662784576416,
        4.61883020401001,
        0.01551899965852499
      ],
      "min": [
        -0.39208099246025085,
        1.8111720085144043,
        -0.14126600325107574
      ],
      "type": "VEC3"
    },
    {
      "bufferView": 1,
      "byteOffset": 2431296,
      "componentType": 5126,
      "count": 8,
      "max": [
        0.0,
        0.0
      ],
      "min": [
        0.0,
        0.0
      ],
      "type": "VEC2"
    },
    {
      "bufferView": 0,
      "byteOffset": 2386224,
      "componentType": 5125,
      "count": 8,
      "type": "SCALAR"
    },
    {
      "bufferView": 2,
      "byteOffset": 7293984,
      "componentType": 5126,
      "count": 420,
      "max": [
        1.1945830583572388,
        2.7329978942871094,
        -0.12514999508857727
      ],
      "min": [
        -1.154114007949829,
        -1.707703948020935,
        -0.3717480003833771
      ],
      "type": "VEC3"
    },
    {
      "bufferView": 2,
      "byteOffset": 7299024,
      "componentType": 5126,
      "count": 420,
      "max": [
        1.0,
        1.0,
        1.0
      ],
      "min": [
        -1.0,
        -1.0,
        -1.0
      ],
      "type": "VEC3"
    },
    {
      "bufferView": 1,
      "byteOffset": 2431360,
      "componentType": 5126,
      "count": 420,
      "max": [
        0.636913001537323,
        0.9023069739341736
      ],
      "min": [
        0.38294100761413574,
        0.8692029714584351
      ],
      "type": "VEC2"
    },
    {
      "bufferView": 0,
      "byteOffset": 2386256,
      "componentType": 5125,
      "count": 660,
      "type": "SCALAR"
    }
  ],
  "asset": {
    "extras": {
      "author": "Хлюпич (https://sketchfab.com/foxplay382)",
      "license": "CC-BY-4.0 (http://creativecommons.org/licenses/by/4.0/)",
      "source": "https://sketchfab.com/3d-models/old-intel-xeon-w3565-lga1366-0aed56c505ca452682793b233776dc73",
      "title": "[Old] INTEL Xeon W3565 LGA1366"
    },
    "generator": "Sketchfab-14.20.0",
    "version": "2.0"
  },
  "bufferViews": [
    {
      "buffer": 0,
      "byteLength": 2388896,
      "name": "floatBufferViews",
      "target": 34963
    },
    {
      "buffer": 0,
      "byteLength": 2434720,
      "byteOffset": 2388896,
      "byteStride": 8,
      "name": "floatBufferViews",
      "target": 34962
    },
    {
      "buffer": 0,
      "byteLength": 7304064,
      "byteOffset": 4823616,
      "byteStride": 12,
      "name": "floatBufferViews",
      "target": 34962
    }
  ],
  "buffers": [
    {
      "byteLength": 12127680,
      "uri": "scene.bin"
    }
  ],
  "images": [
    {
      "uri": "textures/None_baseColor.png"
    }
  ],
  "materials": [
    {
      "doubleSided": true,
      "name": "None",
      "pbrMetallicRoughness": {
        "baseColorTexture": {
          "index": 0
        },
        "metallicFactor": 0.0,
        "roughnessFactor": 0.6
      }
    },
    {
      "doubleSided": true,
      "name": "None_new.png.001",
      "pbrMetallicRoughness": {
        "baseColorTexture": {
          "index": 0
        },
        "metallicFactor": 0.0,
        "roughnessFactor": 0.6
      }
    }
  ],
  "meshes": [
    {
      "name": "Object_0",
      "primitives": [
        {
          "attributes": {
            "NORMAL": 1,
            "POSITION": 0,
            "TEXCOORD_0": 2
          },
          "indices": 3,
          "material": 0,
          "mode": 4
        }
      ]
    },
    {
      "name": "Object_1",
      "primitives": [
        {
          "attributes": {
            "NORMAL": 5,
            "POSITION": 4,
            "TEXCOORD_0": 6
          },
          "indices": 7,
          "material": 0,
          "mode": 4
        }
      ]
    },
    {
      "name": "Object_2",
      "primitives": [
        {
          "attributes": {
            "NORMAL": 9,
            "POSITION": 8,
            "TEXCOORD_0": 10
          },
          "indices": 11,
          "material": 0,
          "mode": 4
        }
      ]
    },
    {
      "name": "Object_3",
      "primitives": [
        {
          "attributes": {
            "NORMAL": 13,
            "POSITION": 12,
            "TEXCOORD_0": 14
          },
          "indices": 15,
          "material": 0,
          "mode": 4
        }
      ]
    },
    {
      "name": "Object_4",
      "primitives": [
        {
          "attributes": {
            "NORMAL": 17,
            "POSITION": 16,
            "TEXCOORD_0": 18
          },
          "indices": 19,
          "material": 0,
          "mode": 4
        }
      ]
    },
    {
      "name": "Object_5",
      "primitives": [
        {
          "attributes": {
            "NORMAL": 21,
            "POSITION": 20,
            "TEXCOORD_0": 22
          },
          "indices": 23,
          "material": 0,
          "mode": 4
        }
      ]
    },
    {
      "name": "Object_6",
      "primitives": [
        {
          "attributes": {
            "NORMAL": 25,
            "POSITION": 24,
            "TEXCOORD_0": 26
          },
          "indices": 27,
          "material": 0,
          "mode": 4
        }
      ]
    },
    {
      "name": "Object_7",
      "primitives": [
        {
          "attributes": {
            "POSITION": 28,
            "TEXCOORD_0": 29
          },
          "indices": 30,
          "material": 1,
          "mode": 1
        }
      ]
    },
    {
      "name": "Object_8",
      "primitives": [
        {
          "attributes": {
            "NORMAL": 32,
            "POSITION": 31,
            "TEXCOORD_0": 33
          },
          "indices": 34,
          "material": 1,
          "mode": 4
        }
      ]
    }
  ],
  "nodes": [
    {
      "children": [
        1
      ],
      "matrix": [
        1.0,
        0.0,
        0.0,
        0.0,
        0.0,
        2.220446049250313e-16,
        -1.0,
        0.0,
        0.0,
        1.0,
        2.220446049250313e-16,
        0.0,
        0.0,
        0.0,
        0.0,
        1.0
      ],
      "name": "Sketchfab_model"
    },
    {
      "children": [
        2,
        3,
        4,
        5,
        6,
        7,
        8,
        9,
        10
      ],
      "name": "1366.obj.cleaner.materialmerger.gles"
    },
    {
      "mesh": 0,
      "name": "Object_2"
    },
    {
      "mesh": 1,
      "name": "Object_3"
    },
    {
      "mesh": 2,
      "name": "Object_4"
    },
    {
      "mesh": 3,
      "name": "Object_5"
    },
    {
      "mesh": 4,
      "name": "Object_6"
    },
    {
      "mesh": 5,
      "name": "Object_7"
    },
    {
      "mesh": 6,
      "name": "Object_8"
    },
    {
      "mesh": 7,
      "name": "Object_9"
    },
    {
      "mesh": 8,
      "name": "Object_10"
    }
  ],
  "samplers": [
    {
      "magFilter": 9729,
      "minFilter": 9987,
      "wrapS": 10497,
      "wrapT": 10497
    }
  ],
  "scene": 0,
  "scenes": [
    {
      "name": "Sketchfab_Scene",
      "nodes": [
        0
      ]
    }
  ],
  "textures": [
    {
      "sampler": 0,
      "source": 0
    }
  ]
}
